<svg xmlns="http://www.w3.org/2000/svg" xmlns:xlink="http://www.w3.org/1999/xlink" width="31" height="29" viewBox="0 0 31 29"><defs><path id="qyp5a" d="M65.53 1283c7.5 0 13.59 6.04 13.59 13.5s-6.09 13.5-13.6 13.5c-7.5 0-13.58-6.04-13.58-13.5s6.08-13.5 13.59-13.5z"/><path id="qyp5b" d="M70 1288.33c-1-.2-1.77-.34-2.83-.34-3.04 0-4.25 1.35-4.25 3.76v1.76H61v2.84h1.9v8.65h3.72v-8.65h2.7l.26-2.84h-2.96v-1.37c0-.77.07-1.26 1.26-1.26.44 0 1.13.08 1.65.17z"/></defs><g><g transform="translate(-50 -1282)"><use xlink:href="#qyp5a"/></g><g transform="translate(-50 -1282)"><use fill="#fff" xlink:href="#qyp5b"/></g></g></svg>