<svg xmlns="http://www.w3.org/2000/svg" xmlns:xlink="http://www.w3.org/1999/xlink" width="21" height="21" viewBox="0 0 21 21"><defs><path id="jnwpa" d="M723.54 1285.55c-.57.57-.02 1.37.6 2.14.9 1.1 1.92 2.07 2.8 2.8 1.35 1.09 2.05 1.57 2.59 1.03l3.89 3.88c-.65.67-4.4 1.95-10.21-4-5.52-5.66-4.23-9.1-3.65-9.83zm11.28 8.47l-1.1 1.1-3.9-3.9 1.1-1.1a.61.61 0 0 1 .86 0l3.04 3.02c.23.24.25.62 0 .87zm-9.88-9.87l-1.1 1.1-3.98-3.98 1.1-1.1a.6.6 0 0 1 .86 0l3.12 3.1v.01a.6.6 0 0 1 0 .87z"/></defs><g><g transform="translate(-716 -1278)"><use xlink:href="#jnwpa"/></g></g></svg>