<svg xmlns="http://www.w3.org/2000/svg" xmlns:xlink="http://www.w3.org/1999/xlink" width="30" height="29" viewBox="0 0 30 29"><defs><path id="w104a" d="M28.59 1283c7.5 0 13.59 6.04 13.59 13.5s-6.09 13.5-13.6 13.5c-7.5 0-13.58-6.04-13.58-13.5s6.08-13.5 13.59-13.5z"/><path id="w104b" d="M28.83 1301.95h.96s.29-.03.43-.2.13-.47.13-.47-.01-1.4.58-1.6c.59-.21 1.34 1.35 2.14 1.95.6.46 1.07.36 1.07.36l2.13-.04s1.12-.07.6-1.04c-.05-.07-.32-.7-1.6-2-1.34-1.37-1.16-1.15.46-3.5.98-1.44 1.37-2.32 1.25-2.7-.12-.35-.84-.26-.84-.26l-2.4.02s-.19-.03-.32.06a.73.73 0 0 0-.21.28s-.38 1.11-.89 2.06c-1.07 1.99-1.5 2.1-1.67 1.97-.41-.29-.31-1.16-.31-1.78 0-1.93.27-2.73-.52-2.94a3.78 3.78 0 0 0-1.13-.12c-.85-.01-1.58 0-2 .22-.27.15-.48.47-.35.5.16.02.52.1.71.38.25.37.24 1.2.24 1.2s.14 2.27-.33 2.55c-.33.2-.77-.2-1.73-2-.49-.93-.86-1.96-.86-1.96s-.07-.19-.2-.29c-.15-.12-.36-.16-.36-.16l-2.3.01s-.33.01-.46.18c-.11.14 0 .44 0 .44s1.78 4.59 3.8 6.9c1.87 2.12 3.98 1.98 3.98 1.98z"/></defs><g><g transform="translate(-14 -1282)"><use xlink:href="#w104a"/></g><g transform="translate(-14 -1282)"><use fill="#fff" xlink:href="#w104b"/></g></g></svg>